HIERARCHY
ROOT root
{
	OFFSET	0	13.1	24.9
	CHANNELS 6  Xposition Yposition Zposition Xrotation Yrotation Zrotation
	JOINT spine_1
	{
		OFFSET	0	9.99999	0
		CHANNELS 3  Xrotation Yrotation Zrotation
		JOINT spine_2
		{
			OFFSET	0	112	-10
			CHANNELS 3  Xrotation Yrotation Zrotation
			JOINT spine_3
			{
				OFFSET	0	206.5	19.3
				CHANNELS 3  Xrotation Yrotation Zrotation
				JOINT spine_4
				{
					OFFSET	0	110.4	14.6
					CHANNELS 3  Xrotation Yrotation Zrotation
					JOINT neck_1
					{
						OFFSET	0	71.8	-50.3
						CHANNELS 3  Xrotation Yrotation Zrotation
						JOINT neck_2
						{
							OFFSET	0	86.2	-25.8
							CHANNELS 3  Xrotation Yrotation Zrotation
							JOINT head_ee
							{
								OFFSET	0	179.8	-8.7
								CHANNELS 3  Xrotation Yrotation Zrotation
								End Site
								{
									OFFSET	1	0	0
								}
							}
						}
					}
					JOINT left_clavicle
					{
						OFFSET	-43.2	22.4	-70.8
						CHANNELS 3  Xrotation Yrotation Zrotation
						JOINT left_shoulder
						{
							OFFSET	-93.9	-5.79999	48.7
							CHANNELS 3  Xrotation Yrotation Zrotation
							JOINT left_elbow
							{
								OFFSET	-291.4	-30.8	15.2
								CHANNELS 3  Xrotation Yrotation Zrotation
								JOINT left_lowarm_twist
								{
									OFFSET	-110.7	-3.89999	13.6
									CHANNELS 3  Xrotation Yrotation Zrotation
									JOINT left_hand
									{
										OFFSET	-110.7	-3.89999	13.6
										CHANNELS 3  Xrotation Yrotation Zrotation
										JOINT left_ee
										{
											OFFSET	-80.8	-5.10001	12.1
											CHANNELS 3  Xrotation Yrotation Zrotation
											End Site
											{
												OFFSET	1	0	0
											}
										}
									}
								}
							}
						}
					}
					JOINT right_clavicle
					{
						OFFSET	43.2	22.4	-70.8
						CHANNELS 3  Xrotation Yrotation Zrotation
						JOINT right_shoulder
						{
							OFFSET	93.9	-5.79999	48.7
							CHANNELS 3  Xrotation Yrotation Zrotation
							JOINT right_elbow
							{
								OFFSET	291.4	-30.8	15.2
								CHANNELS 3  Xrotation Yrotation Zrotation
								JOINT right_lowarm_twist
								{
									OFFSET	110.7	-3.89999	13.6
									CHANNELS 3  Xrotation Yrotation Zrotation
									JOINT right_hand
									{
										OFFSET	110.7	-3.89999	13.6
										CHANNELS 3  Xrotation Yrotation Zrotation
										JOINT right_ee
										{
											OFFSET	80.8	-5.10001	12.1
											CHANNELS 3  Xrotation Yrotation Zrotation
											End Site
											{
												OFFSET	1	0	0
											}
										}
									}
								}
							}
						}
					}
				}
			}
		}
	}
	JOINT left_hip
	{
		OFFSET	-82.8	-127.5	0.300001
		CHANNELS 3  Xrotation Yrotation Zrotation
		JOINT left_knee
		{
			OFFSET	-28.2	-396.7	2.2
			CHANNELS 3  Xrotation Yrotation Zrotation
			JOINT left_ankle
			{
				OFFSET	-11.7	-411.3	35.4
				CHANNELS 3  Xrotation Yrotation Zrotation
				JOINT left_toes
				{
					OFFSET	0	-60	-88.6
					CHANNELS 3  Xrotation Yrotation Zrotation
					JOINT left_foot_ee
					{
						OFFSET	-22.5	-16.5	-42.2
						CHANNELS 3  Xrotation Yrotation Zrotation
						End Site
						{
							OFFSET	1	0	0
						}
					}
				}
			}
		}
	}
	JOINT right_hip
	{
		OFFSET	82.8	-127.5	0.300001
		CHANNELS 3  Xrotation Yrotation Zrotation
		JOINT right_knee
		{
			OFFSET	28.2	-396.7	2.2
			CHANNELS 3  Xrotation Yrotation Zrotation
			JOINT right_ankle
			{
				OFFSET	11.7	-411.3	35.4
				CHANNELS 3  Xrotation Yrotation Zrotation
				JOINT right_toes
				{
					OFFSET	0	-60	-88.6
					CHANNELS 3  Xrotation Yrotation Zrotation
					JOINT right_foot_ee
					{
						OFFSET	22.5	-16.5	-42.2
						CHANNELS 3  Xrotation Yrotation Zrotation
						End Site
						{
							OFFSET	1	0	0
						}
					}
				}
			}
		}
	}
}
MOTION
Frames: 11
Frame Time: 0.02
747.481 696.881 -433.892 172.348 -75.9143 173.579 -1.64066 0.672317 2.8945 -1.63613 0.486852 2.93137 -1.60628 -0.223251 2.9631 -1.61844 0.247306 2.96119 -11.4373 -7.53417 -16.1255 -10.7198 -3.65033 -17.5429 -0.0 0.0 -0.0 -10.3366 21.2168 -12.7942 -4.81452 -12.1227 81.6451 0.580835 -16.0522 0.0819015 13.6303 0.277414 -1.71497 -0.71839 28.6216 7.28123 -0.0 0.0 -0.0 13.0787 26.6807 -25.7768 29.4278 22.2043 -61.9551 2.3925 49.8362 -1.11161 53.637 1.24131 6.49101 1.08856 8.76898 -3.62841 0.0 0.0 0.0 29.272 11.5676 -10.8513 -8.39068 0.25346 1.26162 -8.77186 21.2324 1.33753 -12.0922 0.0 0.0 -0.0 0.0 -0.0 -5.95342 43.4835 -15.1621 -22.2949 -0.261321 -3.3898 42.2174 -21.3093 5.26234 7.42542 -0.0 -0.0 0.0 0.0 0.0 
766.435 701.262 -444.083 170.695 -75.378 171.944 -1.58649 0.590853 2.49448 -1.58313 0.430977 2.527 -1.56048 -0.179441 2.55718 -1.56953 0.226534 2.55344 -10.6754 -8.19797 -15.7717 -9.99523 -4.90421 -17.3544 -0.0 0.0 -0.0 -9.76082 21.0407 -11.9659 -4.44439 -12.5233 81.5604 0.572053 -15.8217 0.0794901 11.9885 0.265732 -1.50559 -0.836348 28.8028 6.71352 -0.0 0.0 -0.0 13.0073 26.9807 -25.575 26.8991 22.7456 -60.2426 2.4072 50.0091 -1.12286 53.6831 1.24492 6.4957 0.961696 6.50637 -3.73237 0.0 0.0 0.0 28.8636 12.0317 -10.5647 -10.0675 0.281808 1.51736 -9.25627 19.0375 1.4014 -11.7922 0.0 0.0 -0.0 0.0 -0.0 -10.0529 44.1976 -12.6872 -20.6383 -0.287504 -3.13697 42.108 -22.3923 5.28308 8.58847 -0.0 -0.0 0.0 0.0 0.0 
785.855 702.631 -447.964 171.717 -74.6696 173.037 -1.53654 0.540465 2.27551 -1.53375 0.394612 2.30527 -1.51488 -0.160432 2.33328 -1.52242 0.209976 2.32934 -9.78999 -9.14751 -14.5318 -9.22493 -7.27755 -16.3542 -0.0 0.0 -0.0 -9.22511 21.1083 -11.107 -4.06546 -12.7014 80.784 0.594705 -16.4151 0.085779 11.8795 0.264743 -1.4917 -1.17624 28.7404 4.85109 -0.0 0.0 -0.0 12.9742 27.0601 -25.4888 26.2949 21.6462 -60.342 2.36962 49.5649 -1.09416 53.2735 1.213 6.45405 0.846056 6.73607 -2.85352 0.0 0.0 0.0 28.0457 12.7037 -10.5854 -10.8413 0.292363 1.63563 -7.0929 17.2802 1.06497 -12.1679 0.0 0.0 -0.0 0.0 -0.0 -10.0886 44.8079 -12.1134 -21.655 -0.272302 -3.29222 42.0897 -23.2613 5.30748 6.36929 -0.0 -0.0 0.0 0.0 0.0 
807.125 702.366 -456.046 173.729 -74.5083 174.859 -1.32169 0.517238 2.29389 -1.31884 0.370264 2.32214 -1.30101 -0.17934 2.34461 -1.30863 0.193094 2.34352 -9.62227 -9.28989 -14.0486 -9.09782 -7.83217 -15.9117 -0.0 0.0 -0.0 -8.8661 22.7694 -9.92092 -3.44163 -12.6242 79.1577 0.631772 -17.3782 0.0965527 11.1617 0.257578 -1.4003 -1.56146 28.0011 2.4424 -0.0 0.0 -0.0 12.8801 27.1118 -25.2656 25.3 21.611 -60.2964 2.31803 48.9416 -1.05507 53.8 1.25409 6.50754 0.698867 5.87351 -2.22418 0.0 0.0 0.0 27.6445 13.1282 -10.1562 -11.9594 0.30479 1.80673 -3.47695 16.1672 0.517299 -10.8508 0.0 0.0 -0.0 0.0 -0.0 -11.3723 45.4904 -11.0031 -21.2715 -0.27836 -3.23369 41.4047 -23.4553 5.25106 4.7912 -0.0 -0.0 0.0 0.0 0.0 
828.846 702.701 -461.884 174.51 -74.0646 175.83 -1.25281 0.471313 2.16096 -1.25028 0.332884 2.18656 -1.23514 -0.181676 2.20427 -1.24188 0.16864 2.2053 -10.2113 -9.22742 -14.0548 -9.68758 -7.88608 -15.9245 -0.0 0.0 -0.0 -8.55812 21.354 -9.99174 -3.32684 -13.0015 79.7283 0.681885 -18.6643 0.112057 10.7467 0.252913 -1.3475 -1.57966 28.6259 2.62667 -0.0 0.0 -0.0 12.4518 27.0218 -24.2937 24.7772 22.1115 -61.2633 2.29669 48.6791 -1.03901 53.6531 1.24257 6.49265 0.598899 5.26311 -1.80724 0.0 0.0 0.0 27.48 13.5161 -10.016 -13.8846 0.318355 2.10179 -0.890973 15.8901 0.131767 -9.58455 0.0 0.0 -0.0 0.0 -0.0 -12.6283 46.1184 -9.92508 -21.0487 -0.281699 -3.19967 41.3962 -23.8204 5.2616 4.91974 -0.0 -0.0 0.0 0.0 0.0 
847.136 705.682 -469.897 176.836 -74.0308 178.742 -1.10273 0.547439 1.77583 -1.10108 0.433347 1.80705 -1.08569 0.00874095 1.85825 -1.09038 0.302057 1.83356 -8.76564 -9.40238 -13.4877 -8.28393 -8.18541 -15.3615 -0.0 0.0 -0.0 -7.92849 21.8564 -8.86373 -2.67601 -13.0778 79.2056 0.799798 -21.6132 0.152667 7.84848 0.209689 -0.979848 -2.39011 28.7667 -1.66215 -0.0 0.0 -0.0 12.4224 27.5686 -24.1586 22.9435 21.4944 -60.2452 2.23186 47.8647 -0.990634 51.8553 1.10481 6.30814 0.52159 4.77732 -1.49078 0.0 0.0 0.0 28.0128 14.0087 -9.87132 -13.2885 0.315215 2.01039 1.36379 14.1897 -0.199949 -9.51832 0.0 0.0 -0.0 0.0 -0.0 -14.1746 46.1941 -8.6706 -18.4736 -0.310681 -2.80564 41.6791 -25.3545 5.33841 5.1755 -0.0 -0.0 0.0 0.0 0.0 
866.908 700.316 -474.852 177.38 -75.1163 179.405 -0.994881 0.336477 1.711 -0.99328 0.226937 1.72893 -0.98506 -0.171388 1.73532 -0.989248 0.104781 1.74061 -9.05254 -9.31497 -11.7869 -8.6945 -9.30192 -13.6924 -0.0 0.0 -0.0 -7.29526 21.119 -8.16691 -1.95251 -13.1036 77.7476 0.836188 -22.5003 0.166333 6.80467 0.189573 -0.84803 -2.27823 28.8373 -1.02583 -0.0 0.0 -0.0 12.1542 27.0486 -23.6102 22.0345 20.9979 -59.6724 2.16554 47.0039 -0.941781 54.8285 1.33576 6.61094 0.350049 3.0364 -1.06862 0.0 0.0 0.0 27.8529 13.5672 -9.73289 -14.5395 0.320709 2.20224 3.74618 10.889 -0.543536 -10.6017 0.0 0.0 -0.0 0.0 -0.0 -13.7877 46.0411 -8.40257 -19.6383 -0.299766 -2.98402 41.5314 -25.257 5.32133 5.65634 -0.0 -0.0 0.0 0.0 0.0 
884.496 710.684 -485.368 175.778 -74.536 178.169 -1.56943 0.261564 1.37886 -1.56839 0.173302 1.39271 -1.56312 -0.161387 1.39414 -1.56583 0.0607943 1.40213 -8.71129 -10.0042 -13.6852 -8.21892 -9.1608 -15.6815 -0.0 0.0 -0.0 -5.74162 20.9781 -5.89608 -1.56578 -12.743 77.0595 0.836521 -22.5084 0.166461 5.21498 0.154331 -0.648024 -2.48445 28.1571 -2.48437 -0.0 0.0 -0.0 11.2412 26.7934 -21.5669 21.8208 21.8032 -60.2017 2.06138 45.5941 -0.866478 54.4855 1.30831 6.57662 0.311617 2.43858 -1.06157 0.0 0.0 0.0 26.7821 14.7907 -9.45089 -16.3951 0.321142 2.48693 6.69142 12.4795 -0.964314 -10.0344 0.0 0.0 -0.0 0.0 -0.0 -15.2343 45.9133 -6.79521 -18.8651 -0.307417 -2.86562 41.3977 -24.4449 5.28173 4.33732 -0.0 -0.0 0.0 0.0 0.0 
900.558 711.603 -492.354 176.629 -75.0786 179.465 -1.54832 -0.00947573 1.19676 -1.54753 -0.0856038 1.19373 -1.54874 -0.365574 1.1396 -1.5505 -0.18102 1.18303 -8.12911 -9.83278 -11.2336 -7.80618 -10.4264 -13.2162 -0.0 0.0 -0.0 -5.07373 20.5432 -5.02391 -0.358009 -12.5748 76.3408 0.893574 -23.8763 0.188931 4.06419 0.125361 -0.503878 -2.60351 28.0767 -3.17218 -0.0 0.0 -0.0 11.1487 26.1507 -21.4303 20.5835 22.1649 -60.2324 1.94957 43.9974 -0.787689 54.5158 1.31073 6.57966 0.186309 0.835073 -0.894408 0.0 0.0 0.0 26.7081 14.9788 -9.27045 -16.91 0.319628 2.56591 11.2204 7.56989 -1.58805 -9.52921 0.0 0.0 -0.0 0.0 -0.0 -15.2392 45.739 -6.21919 -18.8195 -0.307818 -2.85864 41.2869 -24.7147 5.28029 5.13718 -0.0 -0.0 0.0 0.0 0.0 
920.503 709.991 -499.741 175.692 -74.7318 178.519 -1.52282 0.00300012 1.06975 -1.52219 -0.0650732 1.06778 -1.52293 -0.315357 1.02222 -1.52436 -0.149968 1.0592 -7.31653 -10.327 -11.0382 -7.00284 -11.2811 -13.0803 -0.0 0.0 -0.0 -4.43467 20.1947 -4.16207 0.956331 -12.7389 75.9665 0.892453 -23.8497 0.188477 2.55037 0.0828516 -0.315184 -2.93595 28.6195 -4.68051 -0.0 0.0 -0.0 10.257 26.2802 -19.4091 17.7936 21.546 -60.0696 1.97621 44.3859 -0.806259 54.4985 1.30935 6.57792 0.279785 0.128516 -1.81511 0.0 0.0 0.0 25.4489 15.8742 -8.81823 -18.7344 0.308552 2.8456 14.0849 10.5094 -1.97466 -8.18281 0.0 0.0 -0.0 0.0 -0.0 -15.173 45.1014 -5.91174 -21.6372 -0.272592 -3.28951 40.7967 -24.214 5.21828 4.89588 -0.0 -0.0 0.0 0.0 0.0 
943.553 716.997 -507.858 173.24 -75.3053 176.645 -1.55212 -0.0810049 0.910951 -1.55166 -0.138805 0.903951 -1.55358 -0.348773 0.845434 -1.55451 -0.210881 0.889902 -8.4264 -10.7151 -11.1448 -8.11828 -12.225 -13.3358 -0.0 0.0 -0.0 -3.81388 19.8224 -3.32398 1.80375 -12.869 75.5126 0.907687 -24.2103 0.194681 1.86913 0.0620967 -0.230643 -3.01662 28.2523 -5.3214 -0.0 0.0 -0.0 9.15459 26.6034 -16.915 14.586 21.8343 -60.9401 2.00024 44.7319 -0.823116 54.7168 1.3268 6.59978 0.197368 -2.10056 -2.19315 0.0 0.0 0.0 22.9714 16.4157 -9.13765 -18.8235 0.307783 2.85925 16.2079 8.87064 -2.25071 -7.9255 0.0 0.0 -0.0 0.0 -0.0 -12.2795 43.2277 -6.69906 -26.0762 -0.174247 -3.96345 40.9441 -24.4465 5.23952 3.91253 -0.0 -0.0 0.0 0.0 0.0 
